<svg width="400" height="300" viewBox="0 0 400 300" xmlns="http://www.w3.org/2000/svg">
  <defs>
    <linearGradient id="bg10" x1="0%" y1="0%" x2="100%" y2="100%">
      <stop offset="0%" style="stop-color:#166534;stop-opacity:1" />
      <stop offset="100%" style="stop-color:#22c55e;stop-opacity:1" />
    </linearGradient>
  </defs>
  <rect width="400" height="300" fill="url(#bg10)"/>
  
  <!-- Earth/Globe -->
  <circle cx="200" cy="130" r="40" fill="#86efac" stroke="#22c55e" stroke-width="3"/>
  <path d="M170 130 Q180 120 190 130 Q200 140 210 130 Q220 120 230 130" stroke="#166534" stroke-width="2" fill="none"/>
  <path d="M180 110 Q190 100 200 110 Q210 120 220 110" stroke="#166534" stroke-width="2" fill="none"/>
  <path d="M180 150 Q190 160 200 150 Q210 140 220 150" stroke="#166534" stroke-width="2" fill="none"/>
  
  <!-- Trees/Forest -->
  <path d="M120 180 L130 160 L140 180 Z" fill="#15803d"/>
  <path d="M125 180 L135 165 L145 180 Z" fill="#16a34a"/>
  <rect x="132" y="180" width="6" height="15" fill="#92400e"/>
  
  <path d="M260 180 L270 160 L280 180 Z" fill="#15803d"/>
  <path d="M265 180 L275 165 L285 180 Z" fill="#16a34a"/>
  <rect x="272" y="180" width="6" height="15" fill="#92400e"/>
  
  <!-- LiDAR beams -->
  <line x1="150" y1="80" x2="200" y2="90" stroke="#fbbf24" stroke-width="2" opacity="0.7"/>
  <line x1="160" y1="75" x2="200" y2="85" stroke="#fbbf24" stroke-width="2" opacity="0.7"/>
  <line x1="170" y1="70" x2="200" y2="80" stroke="#fbbf24" stroke-width="2" opacity="0.7"/>
  
  <!-- Satellite -->
  <rect x="145" y="60" width="20" height="15" rx="2" fill="#d1d5db"/>
  <line x1="140" y1="67" x2="170" y2="67" stroke="#9ca3af" stroke-width="2"/>
  
  <text x="200" y="40" text-anchor="middle" fill="#f0fdf4" font-family="monospace" font-size="16" font-weight="bold">BIG DATA CHALLENGE</text>
  <text x="200" y="240" text-anchor="middle" fill="#dcfce7" font-family="monospace" font-size="12">Carbon Sequestration Research</text>
  <text x="200" y="260" text-anchor="middle" fill="#dcfce7" font-family="monospace" font-size="10">Digital Research Award</text>
</svg>
